<svg width="470" height="415" xmlns="http://www.w3.org/2000/svg">
 <g>
  <title>Layer 1</title>
  <g id="svg_1" stroke="null">
   <path id="svg_2" class="cls-1" d="m838.24262,8.34272c-12.06288,-1.47536 -20.61454,-12.10377 -19.0853,-23.75134c1.52924,-11.64757 12.54579,-19.88823 24.61873,-18.42258c39.16662,4.79492 72.61871,24.44049 95.02407,52.33643c22.37518,27.86682 33.74386,63.99371 28.77383,101.77067c-1.52924,11.63787 -12.54579,19.88823 -24.61873,18.41287c-12.07294,-1.47536 -20.61454,-12.10377 -19.0853,-23.75134c3.43073,-26.10998 -4.44687,-51.11343 -19.97065,-70.42899c-15.48354,-19.28644 -38.59315,-32.86557 -65.65665,-36.16571m-35.74595,60.31501c-12.06288,-1.47536 -20.61454,-12.10377 -19.0853,-23.75134c1.52924,-11.63787 12.54579,-19.88823 24.61873,-18.41287c30.94696,3.78546 57.37663,19.31556 75.08361,41.34888c17.67679,22.01391 26.65101,50.55047 22.7273,80.39737c-1.52924,11.64757 -12.54579,19.88823 -24.61873,18.42258c-12.07294,-1.47536 -20.61454,-12.10377 -19.0853,-23.75134c2.38441,-18.17992 -3.10878,-35.60275 -13.91406,-49.0654c-10.78516,-13.42383 -26.87235,-22.88748 -45.71619,-25.18788" fill="#ffffff" stroke-miterlimit="10" stroke-width="3px" stroke="#fff"/>
   <path id="svg_3" class="cls-1" d="m756.52896,167.00208c-17.56612,-11.36609 -36.76209,-17.66549 -58.04064,-17.66549c-42.7885,0 -71.42148,32.17642 -71.42148,72.40908l0,0.87357c0,43.2222 31.15824,73.28264 75.95889,73.28264c11.55984,0 23.38125,-0.89298 33.95513,-5.80437c1.70027,-0.78621 2.47495,-1.9995 2.47495,-3.81458l0,-24.01341c0,-2.3101 -1.99203,-4.23195 -4.3865,-4.23195l-32.87863,0c-9.50744,0 -17.25424,-7.48357 -17.25424,-16.65603l0,-32.2929c0,-9.17246 7.75686,-16.64632 17.25424,-16.64632l119.35104,0c9.50744,0 17.2643,7.48357 17.2643,16.64632l0,117.13576c0,5.43553 -2.43471,10.11398 -6.952,13.35588c-38.46236,27.61445 -85.67761,40.7568 -133.36571,40.7568c-96.49295,0 -178.48831,-61.85832 -178.48831,-159.0476l0,-0.87357c0,-35.81629 11.54978,-70.10868 34.72981,-98.23757c34.11611,-41.39741 86.49253,-61.6836 140.57929,-61.6836c43.0702,0 83.42399,11.01666 118.53612,35.35038c4.03437,2.79542 6.41878,6.64882 7.05261,11.39521c0.63383,4.74639 -0.66401,9.06569 -3.83316,12.75409l-37.63738,43.79487c-5.67428,6.60029 -15.51372,7.97859 -22.89834,3.20308" fill="#ffffff" stroke-miterlimit="10" stroke-width="3px" stroke="#fff"/>
   <path id="svg_4" class="cls-1" d="m903.53708,265.24935l23.16998,-17.71402c1.5896,-1.21329 2.08258,-2.85366 1.41857,-4.70756c-0.66401,-1.85391 -2.1027,-2.84395 -4.14504,-2.84395l-41.30957,0c-9.50744,0 -17.2643,-7.48357 -17.2643,-16.65603l0,-14.50123c0,-9.17246 7.75686,-16.65603 17.2643,-16.65603l112.27831,0c9.50744,0 17.2643,7.48357 17.2643,16.65603l0,17.34518c0,5.40641 -2.41459,10.05574 -6.89163,13.30735l-29.22657,21.18888c-1.44875,1.04828 -1.97191,2.3004 -1.70027,4.02812c0.27164,1.73743 1.15699,2.75659 2.87738,3.34868c24.45776,8.33772 39.30747,24.12018 39.30747,50.02632l0,0.52414c0,42.11568 -39.4282,61.84861 -78.31312,61.84861c-26.5001,0 -51.38041,-5.55201 -73.10163,-20.62591c-4.22553,-2.93131 -6.66024,-7.05649 -7.11297,-12.05524c-0.4628,-4.99875 1.18717,-9.47336 4.81911,-13.0744l14.14546,-14.04503c5.9258,-5.89173 15.22196,-6.75559 22.2142,-2.07715c10.12115,6.775 21.37916,11.15255 33.84447,11.15255c9.85957,0 21.9325,-3.47486 21.9325,-14.84095l0,-0.52414c0,-12.43378 -14.99056,-14.83124 -25.21232,-14.83124l-14.11528,0c-7.75686,0 -14.32655,-4.72697 -16.53992,-11.89023l-1.41857,-4.60079c-2.06246,-6.65853 0.17103,-13.49177 5.82519,-17.81108" fill="#ffffff" stroke-miterlimit="10" stroke-width="3px" stroke="#fff"/>
   <path id="svg_5" class="cls-1" d="m983.11786,417.02693c-2.69629,-1.91214 -6.3886,-2.86336 -11.15741,-2.86336c-5.93586,0 -11.42905,0.95122 -16.36889,2.95072c-2.78684,1.12593 -3.51121,2.17421 -3.51121,4.95022l0,35.67069c0,1.9995 0.72438,2.68865 2.78684,2.68865l4.9499,0c2.07252,0 2.69629,-0.69885 2.69629,-2.68865l0,-32.28319c0,-0.52414 0.27164,-0.86386 0.72438,-1.03858c2.25361,-0.69885 4.58772,-1.03858 7.19346,-1.03858c5.84531,0 8.81324,2.776 8.81324,8.41537l0,25.95467c0,1.9995 0.72438,2.68865 2.78684,2.68865l4.85936,0c2.07252,0 2.78684,-0.69885 2.78684,-2.68865l0,-26.2944c0,-2.68865 -0.36219,-4.86286 -0.98596,-6.51293c3.14902,-1.03858 6.02641,-1.56272 8.7227,-1.56272c5.84531,0 8.7227,2.776 8.7227,8.41537l0,25.95467c0,1.9995 0.72438,2.68865 2.78684,2.68865l4.93984,0c2.07252,0 2.70635,-0.69885 2.70635,-2.68865l0,-26.2944c0,-11.55051 -5.84531,-17.27723 -17.63655,-17.27723c-5.66422,0 -10.88576,0.95122 -15.83567,2.86336m-50.2033,27.34268c0,5.20258 -3.77279,8.25036 -10.34248,8.25036s-10.25194,-3.03808 -10.25194,-8.25036l0,-12.84145c0,-5.29965 3.69231,-8.25036 10.25194,-8.25036s10.34248,2.95072 10.34248,8.25036l0,12.84145zm-31.03751,0c0,10.85166 7.4651,17.36459 20.69503,17.36459s20.78557,-6.51293 20.78557,-17.36459l0,-12.84145c0,-10.85166 -7.4651,-17.36459 -20.78557,-17.36459s-20.69503,6.51293 -20.69503,17.36459l0,12.84145zm-46.51099,-0.43678c0,11.3758 6.56969,17.79167 19.8801,17.79167c10.25194,0 16.91217,-3.81458 20.0612,-11.5408c0.81492,-1.82479 0.18109,-3.12543 -1.89143,-3.90194l-4.04443,-1.12593c-2.15301,-0.69885 -3.14902,-0.34943 -3.95389,1.73743c-1.52924,3.98929 -4.85936,5.98879 -9.80926,5.98879c-6.3886,0 -9.80926,-3.03808 -9.80926,-8.50273l0,-12.84145c0,-5.63937 3.23957,-8.50273 9.80926,-8.50273c4.9499,0 8.28002,1.91214 9.80926,5.81408c0.80486,2.08686 1.80088,2.611 3.95389,1.82479l3.96395,-1.21329c2.16307,-0.78621 2.69629,-1.73743 1.98197,-3.90194c-2.42465,-6.86236 -9.08488,-11.3758 -19.25633,-11.3758c-13.76315,0 -20.69503,6.42558 -20.69503,17.79167l0,11.97759l0,-0.01941zm-17.18381,-10.50223l-20.77551,0l0,-1.91214c0,-5.63937 3.69231,-8.85216 10.43303,-8.85216s10.34248,3.21279 10.34248,8.85216l0,1.91214zm-31.2186,9.71602c0,11.36609 6.66024,18.57788 20.69503,18.57788c9.44707,0 15.92622,-2.776 19.42737,-8.33772c1.34814,-1.98979 0.99602,-3.3875 -1.0765,-4.33872l-3.14902,-1.65007c-2.16307,-1.12593 -3.14902,-0.95122 -4.58772,1.03858c-2.07252,3.03808 -5.57367,4.60079 -10.61412,4.60079c-6.56969,0 -10.25194,-3.03808 -10.25194,-8.67744l0,-3.21279l27.16411,0c2.69629,0 4.04443,-1.21329 4.04443,-3.72722l0,-5.28994c0,-10.50223 -7.10291,-17.96638 -20.78557,-17.96638s-20.86606,6.60029 -20.86606,18.75259l0,10.24016l0,-0.00971l-0.00001,-0.00001zm-9.08488,-44.27048c0,-1.9995 -0.71432,-2.68865 -2.78684,-2.68865l-4.85936,0c-2.16307,0 -2.78684,0.69885 -2.78684,2.68865l0,58.84936c0,1.9995 0.63383,2.68865 2.78684,2.68865l4.85936,0c2.07252,0 2.78684,-0.69885 2.78684,-2.68865l0,-58.84936zm-29.41772,34.54476l-20.77551,0l0,-1.91214c0,-5.63937 3.69231,-8.85216 10.43303,-8.85216s10.34248,3.21279 10.34248,8.85216l0,1.91214zm-31.2186,9.71602c0,11.36609 6.66024,18.57788 20.69503,18.57788c9.44707,0 15.91615,-2.776 19.42737,-8.33772c1.34814,-1.98979 0.98596,-3.3875 -1.0765,-4.33872l-3.14902,-1.65007c-2.16307,-1.12593 -3.14902,-0.95122 -4.58772,1.03858c-2.07252,3.03808 -5.57367,4.60079 -10.61412,4.60079c-6.56969,0 -10.25194,-3.03808 -10.25194,-8.67744l0,-3.21279l27.16411,0c2.69629,0 4.04443,-1.21329 4.04443,-3.72722l0,-5.28994c0,-10.50223 -7.11297,-17.96638 -20.78557,-17.96638s-20.86606,6.60029 -20.86606,18.75259l0,10.24016l0,-0.00971l-0.00001,-0.00001zm-41.47054,-44.34813c-2.25361,0 -3.05848,0.7765 -3.05848,2.95072l0,4.25136c0,2.17421 0.81492,2.95072 3.05848,2.95072l15.47348,0l0,48.51214c0,2.17421 0.80486,2.95072 3.05848,2.95072l5.22155,0c2.24355,0 3.05848,-0.7765 3.05848,-2.95072l0,-48.51214l15.47348,0c2.25361,0 3.05848,-0.7765 3.05848,-2.95072l0,-4.25136c0,-2.17421 -0.80486,-2.95072 -3.05848,-2.95072l-42.28546,0l-0.00001,0z" fill="#ffffff" stroke-miterlimit="10" stroke-width="3px" stroke="#fff"/>
  </g>
  <g id="svg_6" stroke="null">
   <path stroke-width="3px" stroke-miterlimit="10" fill="#3eafda" d="m299.45309,43.84865c-11.23695,-1.45814 -19.2031,-11.96253 -17.77856,-23.47419c1.42453,-11.51166 11.6868,-19.65616 22.93313,-18.20761c36.48495,4.73897 67.64664,24.1553 88.51794,51.72573c20.84319,27.54165 31.43348,63.24698 26.80374,100.58313c-1.42453,11.50207 -11.6868,19.65616 -22.93313,18.19802c-11.24632,-1.45814 -19.2031,-11.96253 -17.77856,-23.47419c3.19583,-25.80531 -4.1424,-50.517 -18.60329,-69.60717c-14.42341,-19.06139 -35.95075,-32.48207 -61.16126,-35.74371m-33.29849,59.61121c-11.23695,-1.45814 -19.2031,-11.96253 -17.77856,-23.47419c1.42453,-11.50207 11.6868,-19.65616 22.93313,-18.19802c28.82808,3.74129 53.44815,19.09017 69.94276,40.86639c16.46649,21.75704 24.82626,49.96061 21.1712,79.45924c-1.42453,11.51166 -11.6868,19.65616 -22.93313,18.20761c-11.24632,-1.45814 -19.2031,-11.96253 -17.77856,-23.47419c2.22115,-17.96778 -2.89593,-35.18731 -12.96139,-48.49287c-10.04672,-13.26719 -25.03244,-22.62041 -42.58608,-24.89397" class="cls-1" id="svg_7" stroke="#fff"/>
   <path stroke-width="3px" stroke-miterlimit="10" fill="#3eafda" d="m223.33423,199.66632c-16.3634,-11.23346 -34.24506,-17.45935 -54.0667,-17.45935c-39.85885,0 -66.53138,31.80096 -66.53138,71.56416l0,0.86337c0,42.71785 29.02489,72.42753 70.75812,72.42753c10.76836,0 21.78038,-0.88256 31.63029,-5.73664c1.58386,-0.77704 2.3055,-1.97617 2.3055,-3.77007l0,-23.73321c0,-2.28315 -1.85564,-4.18257 -4.08616,-4.18257l-30.62749,0c-8.85648,0 -16.07287,-7.39624 -16.07287,-16.46167l0,-31.91608c0,-9.06543 7.22576,-16.45208 16.07287,-16.45208l111.17928,0c8.85648,0 16.08224,7.39624 16.08224,16.45208l0,115.76893c0,5.37211 -2.26801,9.99596 -6.47601,13.20004c-35.82891,27.29223 -79.81141,40.28122 -124.23439,40.28122c-89.88624,0 -166.26753,-61.13651 -166.26753,-157.19172l0,-0.86337c0,-35.39836 10.75898,-69.2906 32.35192,-97.09126c31.78024,-40.91436 80.57054,-60.96383 130.95407,-60.96383c40.12126,0 77.7121,10.88811 110.42016,34.93789c3.75815,2.7628 5.9793,6.57124 6.56973,11.26224c0.59043,4.691 -0.61855,8.95991 -3.57071,12.60527l-35.06041,43.28384c-5.28577,6.52327 -14.45153,7.88549 -21.33053,3.16571" class="cls-1" id="svg_8" stroke="#fff"/>
   <path stroke-width="3px" stroke-miterlimit="10" fill="#3eafda" d="m360.27696,297.7575l21.58357,-17.50732c1.48077,-1.19913 1.93999,-2.82036 1.32144,-4.65263c-0.61855,-1.83227 -1.95873,-2.81076 -3.86124,-2.81076l-38.48117,0c-8.85648,0 -16.08224,-7.39624 -16.08224,-16.46167l0,-14.33202c0,-9.06543 7.22576,-16.46167 16.08224,-16.46167l104.59081,0c8.85648,0 16.08224,7.39624 16.08224,16.46167l0,17.14278c0,5.34333 -2.24926,9.9384 -6.41978,13.15207l-27.22548,20.94163c-1.34956,1.03605 -1.8369,2.27355 -1.58386,3.98112c0.25304,1.71716 1.07777,2.72443 2.68037,3.3096c22.78318,8.24043 36.61616,23.83873 36.61616,49.44258l0,0.51802c0,41.62425 -36.72862,61.12692 -72.95115,61.12692c-24.68568,0 -47.86248,-5.48722 -68.09649,-20.38523c-3.93621,-2.8971 -6.20422,-6.97415 -6.62596,-11.91457c-0.43111,-4.94042 1.10589,-9.36282 4.48916,-12.92184l13.17694,-13.88114c5.52007,-5.82298 14.17974,-6.67676 20.69324,-2.05291c9.42817,6.69595 19.91537,11.02241 31.52719,11.02241c9.1845,0 20.43082,-3.43431 20.43082,-14.66777l0,-0.51802c0,-12.2887 -13.96419,-14.65818 -23.48607,-14.65818l-13.14883,0c-7.22576,0 -13.34564,-4.67182 -15.40746,-11.75149l-1.32144,-4.54711c-1.92125,-6.58083 0.15932,-13.33434 5.42635,-17.60325" class="cls-1" id="svg_9" stroke="#fff"/>
  </g>
 </g>

</svg>