<svg width="500" height="500" xmlns="http://www.w3.org/2000/svg">
 <g>
  <title>Layer 1</title>
  <g stroke="null" id="svg_1">
   <path stroke="#fff" stroke-width="3px" stroke-miterlimit="10" fill="#ffffff" d="m838.24262,8.34272c-12.06288,-1.47536 -20.61454,-12.10377 -19.0853,-23.75134c1.52924,-11.64757 12.54579,-19.88823 24.61873,-18.42258c39.16662,4.79492 72.61871,24.44049 95.02407,52.33643c22.37518,27.86682 33.74386,63.99371 28.77383,101.77067c-1.52924,11.63787 -12.54579,19.88823 -24.61873,18.41287c-12.07294,-1.47536 -20.61454,-12.10377 -19.0853,-23.75134c3.43073,-26.10998 -4.44687,-51.11343 -19.97065,-70.42899c-15.48354,-19.28644 -38.59315,-32.86557 -65.65665,-36.16571m-35.74595,60.31501c-12.06288,-1.47536 -20.61454,-12.10377 -19.0853,-23.75134c1.52924,-11.63787 12.54579,-19.88823 24.61873,-18.41287c30.94696,3.78546 57.37663,19.31556 75.08361,41.34888c17.67679,22.01391 26.65101,50.55047 22.7273,80.39737c-1.52924,11.64757 -12.54579,19.88823 -24.61873,18.42258c-12.07294,-1.47536 -20.61454,-12.10377 -19.0853,-23.75134c2.38441,-18.17992 -3.10878,-35.60275 -13.91406,-49.0654c-10.78516,-13.42383 -26.87235,-22.88748 -45.71619,-25.18788" class="cls-1" id="svg_2"/>
   <path stroke="#fff" stroke-width="3px" stroke-miterlimit="10" fill="#ffffff" d="m756.52896,167.00208c-17.56612,-11.36609 -36.76209,-17.66549 -58.04064,-17.66549c-42.7885,0 -71.42148,32.17642 -71.42148,72.40908l0,0.87357c0,43.2222 31.15824,73.28264 75.95889,73.28264c11.55984,0 23.38125,-0.89298 33.95513,-5.80437c1.70027,-0.78621 2.47495,-1.9995 2.47495,-3.81458l0,-24.01341c0,-2.3101 -1.99203,-4.23195 -4.3865,-4.23195l-32.87863,0c-9.50744,0 -17.25424,-7.48357 -17.25424,-16.65603l0,-32.2929c0,-9.17246 7.75686,-16.64632 17.25424,-16.64632l119.35104,0c9.50744,0 17.2643,7.48357 17.2643,16.64632l0,117.13576c0,5.43553 -2.43471,10.11398 -6.952,13.35588c-38.46236,27.61445 -85.67761,40.7568 -133.36571,40.7568c-96.49295,0 -178.48831,-61.85832 -178.48831,-159.0476l0,-0.87357c0,-35.81629 11.54978,-70.10868 34.72981,-98.23757c34.11611,-41.39741 86.49253,-61.6836 140.57929,-61.6836c43.0702,0 83.42399,11.01666 118.53612,35.35038c4.03437,2.79542 6.41878,6.64882 7.05261,11.39521c0.63383,4.74639 -0.66401,9.06569 -3.83316,12.75409l-37.63738,43.79487c-5.67428,6.60029 -15.51372,7.97859 -22.89834,3.20308" class="cls-1" id="svg_3"/>
   <path stroke="#fff" stroke-width="3px" stroke-miterlimit="10" fill="#ffffff" d="m903.53708,265.24935l23.16998,-17.71402c1.5896,-1.21329 2.08258,-2.85366 1.41857,-4.70756c-0.66401,-1.85391 -2.1027,-2.84395 -4.14504,-2.84395l-41.30957,0c-9.50744,0 -17.2643,-7.48357 -17.2643,-16.65603l0,-14.50123c0,-9.17246 7.75686,-16.65603 17.2643,-16.65603l112.27831,0c9.50744,0 17.2643,7.48357 17.2643,16.65603l0,17.34518c0,5.40641 -2.41459,10.05574 -6.89163,13.30735l-29.22657,21.18888c-1.44875,1.04828 -1.97191,2.3004 -1.70027,4.02812c0.27164,1.73743 1.15699,2.75659 2.87738,3.34868c24.45776,8.33772 39.30747,24.12018 39.30747,50.02632l0,0.52414c0,42.11568 -39.4282,61.84861 -78.31312,61.84861c-26.5001,0 -51.38041,-5.55201 -73.10163,-20.62591c-4.22553,-2.93131 -6.66024,-7.05649 -7.11297,-12.05524c-0.4628,-4.99875 1.18717,-9.47336 4.81911,-13.0744l14.14546,-14.04503c5.9258,-5.89173 15.22196,-6.75559 22.2142,-2.07715c10.12115,6.775 21.37916,11.15255 33.84447,11.15255c9.85957,0 21.9325,-3.47486 21.9325,-14.84095l0,-0.52414c0,-12.43378 -14.99056,-14.83124 -25.21232,-14.83124l-14.11528,0c-7.75686,0 -14.32655,-4.72697 -16.53992,-11.89023l-1.41857,-4.60079c-2.06246,-6.65853 0.17103,-13.49177 5.82519,-17.81108" class="cls-1" id="svg_4"/>
   <path stroke="#fff" stroke-width="3px" stroke-miterlimit="10" fill="#ffffff" d="m983.11786,417.02693c-2.69629,-1.91214 -6.3886,-2.86336 -11.15741,-2.86336c-5.93586,0 -11.42905,0.95122 -16.36889,2.95072c-2.78684,1.12593 -3.51121,2.17421 -3.51121,4.95022l0,35.67069c0,1.9995 0.72438,2.68865 2.78684,2.68865l4.9499,0c2.07252,0 2.69629,-0.69885 2.69629,-2.68865l0,-32.28319c0,-0.52414 0.27164,-0.86386 0.72438,-1.03858c2.25361,-0.69885 4.58772,-1.03858 7.19346,-1.03858c5.84531,0 8.81324,2.776 8.81324,8.41537l0,25.95467c0,1.9995 0.72438,2.68865 2.78684,2.68865l4.85936,0c2.07252,0 2.78684,-0.69885 2.78684,-2.68865l0,-26.2944c0,-2.68865 -0.36219,-4.86286 -0.98596,-6.51293c3.14902,-1.03858 6.02641,-1.56272 8.7227,-1.56272c5.84531,0 8.7227,2.776 8.7227,8.41537l0,25.95467c0,1.9995 0.72438,2.68865 2.78684,2.68865l4.93984,0c2.07252,0 2.70635,-0.69885 2.70635,-2.68865l0,-26.2944c0,-11.55051 -5.84531,-17.27723 -17.63655,-17.27723c-5.66422,0 -10.88576,0.95122 -15.83567,2.86336m-50.2033,27.34268c0,5.20258 -3.77279,8.25036 -10.34248,8.25036s-10.25194,-3.03808 -10.25194,-8.25036l0,-12.84145c0,-5.29965 3.69231,-8.25036 10.25194,-8.25036s10.34248,2.95072 10.34248,8.25036l0,12.84145zm-31.03751,0c0,10.85166 7.4651,17.36459 20.69503,17.36459s20.78557,-6.51293 20.78557,-17.36459l0,-12.84145c0,-10.85166 -7.4651,-17.36459 -20.78557,-17.36459s-20.69503,6.51293 -20.69503,17.36459l0,12.84145zm-46.51099,-0.43678c0,11.3758 6.56969,17.79167 19.8801,17.79167c10.25194,0 16.91217,-3.81458 20.0612,-11.5408c0.81492,-1.82479 0.18109,-3.12543 -1.89143,-3.90194l-4.04443,-1.12593c-2.15301,-0.69885 -3.14902,-0.34943 -3.95389,1.73743c-1.52924,3.98929 -4.85936,5.98879 -9.80926,5.98879c-6.3886,0 -9.80926,-3.03808 -9.80926,-8.50273l0,-12.84145c0,-5.63937 3.23957,-8.50273 9.80926,-8.50273c4.9499,0 8.28002,1.91214 9.80926,5.81408c0.80486,2.08686 1.80088,2.611 3.95389,1.82479l3.96395,-1.21329c2.16307,-0.78621 2.69629,-1.73743 1.98197,-3.90194c-2.42465,-6.86236 -9.08488,-11.3758 -19.25633,-11.3758c-13.76315,0 -20.69503,6.42558 -20.69503,17.79167l0,11.97759l0,-0.01941zm-17.18381,-10.50223l-20.77551,0l0,-1.91214c0,-5.63937 3.69231,-8.85216 10.43303,-8.85216s10.34248,3.21279 10.34248,8.85216l0,1.91214zm-31.2186,9.71602c0,11.36609 6.66024,18.57788 20.69503,18.57788c9.44707,0 15.92622,-2.776 19.42737,-8.33772c1.34814,-1.98979 0.99602,-3.3875 -1.0765,-4.33872l-3.14902,-1.65007c-2.16307,-1.12593 -3.14902,-0.95122 -4.58772,1.03858c-2.07252,3.03808 -5.57367,4.60079 -10.61412,4.60079c-6.56969,0 -10.25194,-3.03808 -10.25194,-8.67744l0,-3.21279l27.16411,0c2.69629,0 4.04443,-1.21329 4.04443,-3.72722l0,-5.28994c0,-10.50223 -7.10291,-17.96638 -20.78557,-17.96638s-20.86606,6.60029 -20.86606,18.75259l0,10.24016l0,-0.00971l-0.00001,-0.00001zm-9.08488,-44.27048c0,-1.9995 -0.71432,-2.68865 -2.78684,-2.68865l-4.85936,0c-2.16307,0 -2.78684,0.69885 -2.78684,2.68865l0,58.84936c0,1.9995 0.63383,2.68865 2.78684,2.68865l4.85936,0c2.07252,0 2.78684,-0.69885 2.78684,-2.68865l0,-58.84936zm-29.41772,34.54476l-20.77551,0l0,-1.91214c0,-5.63937 3.69231,-8.85216 10.43303,-8.85216s10.34248,3.21279 10.34248,8.85216l0,1.91214zm-31.2186,9.71602c0,11.36609 6.66024,18.57788 20.69503,18.57788c9.44707,0 15.91615,-2.776 19.42737,-8.33772c1.34814,-1.98979 0.98596,-3.3875 -1.0765,-4.33872l-3.14902,-1.65007c-2.16307,-1.12593 -3.14902,-0.95122 -4.58772,1.03858c-2.07252,3.03808 -5.57367,4.60079 -10.61412,4.60079c-6.56969,0 -10.25194,-3.03808 -10.25194,-8.67744l0,-3.21279l27.16411,0c2.69629,0 4.04443,-1.21329 4.04443,-3.72722l0,-5.28994c0,-10.50223 -7.11297,-17.96638 -20.78557,-17.96638s-20.86606,6.60029 -20.86606,18.75259l0,10.24016l0,-0.00971l-0.00001,-0.00001zm-41.47054,-44.34813c-2.25361,0 -3.05848,0.7765 -3.05848,2.95072l0,4.25136c0,2.17421 0.81492,2.95072 3.05848,2.95072l15.47348,0l0,48.51214c0,2.17421 0.80486,2.95072 3.05848,2.95072l5.22155,0c2.24355,0 3.05848,-0.7765 3.05848,-2.95072l0,-48.51214l15.47348,0c2.25361,0 3.05848,-0.7765 3.05848,-2.95072l0,-4.25136c0,-2.17421 -0.80486,-2.95072 -3.05848,-2.95072l-42.28546,0l-0.00001,0z" class="cls-1" id="svg_5"/>
  </g>
  <g stroke="null" id="svg_6">
   <path stroke="#fff" id="svg_7" class="cls-1" d="m318.88348,45.25731c-12.08717,-1.47238 -20.65605,-12.07935 -19.12373,-23.70343c1.53232,-11.62408 12.57106,-19.84811 24.66831,-18.38542c39.24549,4.78525 72.76495,24.39119 95.21543,52.23085c22.42023,27.81061 33.81181,63.86462 28.83178,101.56538c-1.53232,11.61439 -12.57106,19.84811 -24.66831,18.37573c-12.09725,-1.47238 -20.65605,-12.07935 -19.12373,-23.70343c3.43763,-26.05731 -4.45582,-51.01033 -20.01087,-70.28692c-15.51472,-19.24753 -38.67087,-32.79927 -65.78887,-36.09276m-35.81794,60.19335c-12.08717,-1.47238 -20.65605,-12.07935 -19.12373,-23.70343c1.53232,-11.61439 12.57106,-19.84811 24.66831,-18.37573c31.00928,3.77783 57.49218,19.2766 75.23481,41.26547c17.71239,21.96951 26.70468,50.4485 22.77307,80.23519c-1.53232,11.62408 -12.57106,19.84811 -24.66831,18.38542c-12.09725,-1.47238 -20.65605,-12.07935 -19.12373,-23.70343c2.38921,-18.14325 -3.11504,-35.53093 -13.94208,-48.96643c-10.80688,-13.39675 -26.92646,-22.84131 -45.80825,-25.13707" fill="#ffffff" stroke-miterlimit="10" stroke-width="3px"/>
   <path stroke="#fff" id="svg_8" class="cls-1" d="m237.00527,203.59662c-17.6015,-11.34316 -36.83612,-17.62985 -58.15752,-17.62985c-42.87467,0 -71.56531,32.11151 -71.56531,72.26301l0,0.87181c0,43.13501 31.22098,73.13482 76.11186,73.13482c11.58312,0 23.42834,-0.89118 34.02351,-5.79267c1.7037,-0.78463 2.47994,-1.99547 2.47994,-3.80689l0,-23.96497c0,-2.30544 -1.99605,-4.22341 -4.39533,-4.22341l-32.94484,0c-9.52658,0 -17.28899,-7.46847 -17.28899,-16.62243l0,-32.22775c0,-9.15396 7.77248,-16.61274 17.28899,-16.61274l119.59139,0c9.52658,0 17.29907,7.46847 17.29907,16.61274l0,116.89947c0,5.42457 -2.43961,10.09357 -6.966,13.32894c-38.53982,27.55875 -85.85014,40.67458 -133.63428,40.67458c-96.68726,0 -178.84775,-61.73354 -178.84775,-158.72678l0,-0.87181c0,-35.74404 11.57303,-69.96726 34.79975,-98.03941c34.18481,-41.31391 86.66671,-61.55918 140.86238,-61.55918c43.15694,0 83.59199,10.99444 118.77482,35.27907c4.0425,2.78978 6.4317,6.63541 7.06681,11.37222c0.63511,4.73681 -0.66535,9.04741 -3.84088,12.72836l-37.71317,43.70653c-5.68571,6.58698 -15.54497,7.96249 -22.94445,3.19662" fill="#ffffff" stroke-miterlimit="10" stroke-width="3px"/>
   <path stroke="#fff" id="svg_9" class="cls-1" d="m384.30944,301.64571l23.21664,-17.67828c1.5928,-1.21084 2.08678,-2.8479 1.42143,-4.69806c-0.66535,-1.85017 -2.10694,-2.83821 -4.15339,-2.83821l-41.39275,0c-9.52658,0 -17.29907,-7.46847 -17.29907,-16.62243l0,-14.47198c0,-9.15396 7.77248,-16.62243 17.29907,-16.62243l112.50442,0c9.52658,0 17.29907,7.46847 17.29907,16.62243l0,17.31019c0,5.39551 -2.41945,10.03545 -6.90551,13.28051l-29.28542,21.14613c-1.45167,1.04617 -1.97588,2.29576 -1.7037,4.01999c0.27219,1.73392 1.15932,2.75103 2.88318,3.34192c24.50701,8.3209 39.38663,24.07153 39.38663,49.92541l0,0.52308c0,42.03073 -39.5076,61.72385 -78.47082,61.72385c-26.55346,0 -51.48388,-5.54081 -73.24884,-20.5843c-4.23404,-2.92539 -6.67365,-7.04225 -7.1273,-12.03092c-0.46373,-4.98867 1.18956,-9.45425 4.82882,-13.04803l14.17394,-14.0167c5.93773,-5.87985 15.25261,-6.74196 22.25894,-2.07296c10.14153,6.76134 21.42221,11.13005 33.91262,11.13005c9.87942,0 21.97667,-3.46785 21.97667,-14.81101l0,-0.52308c0,-12.4087 -15.02075,-14.80133 -25.26309,-14.80133l-14.1437,0c-7.77248,0 -14.3554,-4.71744 -16.57323,-11.86625l-1.42143,-4.59151c-2.06661,-6.6451 0.17138,-13.46456 5.83692,-17.77515" fill="#ffffff" stroke-miterlimit="10" stroke-width="3px"/>
   <path stroke="#fff" id="svg_10" class="cls-1" d="m464.05047,453.11713c-2.70172,-1.90829 -6.40146,-2.85759 -11.17987,-2.85759c-5.94781,0 -11.45206,0.9493 -16.40185,2.94477c-2.79245,1.12366 -3.51828,2.16983 -3.51828,4.94023l0,35.59874c0,1.99547 0.72583,2.68322 2.79245,2.68322l4.95987,0c2.07669,0 2.70172,-0.69744 2.70172,-2.68322l0,-32.21807c0,-0.52308 0.27219,-0.86212 0.72583,-1.03648c2.25815,-0.69744 4.59695,-1.03648 7.20794,-1.03648c5.85708,0 8.83099,2.77041 8.83099,8.3984l0,25.90232c0,1.99547 0.72583,2.68322 2.79245,2.68322l4.86914,0c2.07669,0 2.79245,-0.69744 2.79245,-2.68322l0,-26.24135c0,-2.68322 -0.36292,-4.85305 -0.98794,-6.4998c3.15537,-1.03648 6.03854,-1.55956 8.74026,-1.55956c5.85708,0 8.74026,2.77041 8.74026,8.3984l0,25.90232c0,1.99547 0.72583,2.68322 2.79245,2.68322l4.94979,0c2.07669,0 2.7118,-0.69744 2.7118,-2.68322l0,-26.24135c0,-11.52721 -5.85708,-17.24238 -17.67206,-17.24238c-5.67563,0 -10.90769,0.9493 -15.86756,2.85759m-50.30439,27.28752c0,5.19209 -3.78039,8.23372 -10.36331,8.23372s-10.27258,-3.03195 -10.27258,-8.23372l0,-12.81555c0,-5.28896 3.69974,-8.23372 10.27258,-8.23372s10.36331,2.94477 10.36331,8.23372l0,12.81555zm-31.10001,0c0,10.82977 7.48013,17.32956 20.7367,17.32956s20.82743,-6.4998 20.82743,-17.32956l0,-12.81555c0,-10.82977 -7.48013,-17.32956 -20.82743,-17.32956s-20.7367,6.4998 -20.7367,17.32956l0,12.81555zm-46.60465,-0.4359c0,11.35285 6.58292,17.75578 19.92014,17.75578c10.27258,0 16.94623,-3.80689 20.1016,-11.51752c0.81656,-1.82111 0.18146,-3.11913 -1.89524,-3.89407l-4.05258,-1.12366c-2.15734,-0.69744 -3.15537,-0.34872 -3.96185,1.73392c-1.53232,3.98125 -4.86914,5.97671 -9.82901,5.97671c-6.40146,0 -9.82901,-3.03195 -9.82901,-8.48558l0,-12.81555c0,-5.62799 3.2461,-8.48558 9.82901,-8.48558c4.95987,0 8.2967,1.90829 9.82901,5.80235c0.80648,2.08265 1.80451,2.60573 3.96185,1.82111l3.97193,-1.21084c2.16742,-0.78463 2.70172,-1.73392 1.98597,-3.89407c-2.42953,-6.84852 -9.10318,-11.35285 -19.29511,-11.35285c-13.79086,0 -20.7367,6.41262 -20.7367,17.75578l0,11.95343l0,-0.01937zm-17.21842,-10.48104l-20.81735,0l0,-1.90829c0,-5.62799 3.69974,-8.8343 10.45404,-8.8343s10.36331,3.20631 10.36331,8.8343l0,1.90829zm-31.28147,9.69642c0,11.34316 6.67365,18.5404 20.7367,18.5404c9.4661,0 15.95829,-2.77041 19.46649,-8.3209c1.35086,-1.98578 0.99802,-3.38067 -1.07867,-4.32997l-3.15537,-1.64674c-2.16742,-1.12366 -3.15537,-0.9493 -4.59695,1.03648c-2.07669,3.03195 -5.5849,4.59151 -10.6355,4.59151c-6.58292,0 -10.27258,-3.03195 -10.27258,-8.65994l0,-3.20631l27.21881,0c2.70172,0 4.05258,-1.21084 4.05258,-3.7197l0,-5.27927c0,-10.48104 -7.11721,-17.93014 -20.82743,-17.93014s-20.90808,6.58698 -20.90808,18.71476l0,10.2195l0,-0.00969zm-9.10318,-44.18118c0,-1.99547 -0.71575,-2.68322 -2.79245,-2.68322l-4.86914,0c-2.16742,0 -2.79245,0.69744 -2.79245,2.68322l0,58.73065c0,1.99547 0.63511,2.68322 2.79245,2.68322l4.86914,0c2.07669,0 2.79245,-0.69744 2.79245,-2.68322l0,-58.73065zm-29.47696,34.47508l-20.81735,0l0,-1.90829c0,-5.62799 3.69974,-8.8343 10.45404,-8.8343s10.36331,3.20631 10.36331,8.8343l0,1.90829zm-31.28147,9.69642c0,11.34316 6.67365,18.5404 20.7367,18.5404c9.4661,0 15.94821,-2.77041 19.46649,-8.3209c1.35086,-1.98578 0.98794,-3.38067 -1.07867,-4.32997l-3.15537,-1.64674c-2.16742,-1.12366 -3.15537,-0.9493 -4.59695,1.03648c-2.07669,3.03195 -5.5849,4.59151 -10.6355,4.59151c-6.58292,0 -10.27258,-3.03195 -10.27258,-8.65994l0,-3.20631l27.21881,0c2.70172,0 4.05258,-1.21084 4.05258,-3.7197l0,-5.27927c0,-10.48104 -7.1273,-17.93014 -20.82743,-17.93014s-20.90808,6.58698 -20.90808,18.71476l0,10.2195l0,-0.00969zm-41.55405,-44.25867c-2.25815,0 -3.06464,0.77494 -3.06464,2.94477l0,4.24279c0,2.16983 0.81656,2.94477 3.06464,2.94477l15.50464,0l0,48.41428c0,2.16983 0.80648,2.94477 3.06464,2.94477l5.23206,0c2.24807,0 3.06464,-0.77494 3.06464,-2.94477l0,-48.41428l15.50464,0c2.25815,0 3.06464,-0.77494 3.06464,-2.94477l0,-4.24279c0,-2.16983 -0.80648,-2.94477 -3.06464,-2.94477l-42.37061,0z" fill="#ffffff" stroke-miterlimit="10" stroke-width="3px"/>
  </g>
 </g>

</svg>